<?xml version="1.0" encoding="UTF-8" standalone="no"?>
<svg
   xmlns:dc="http://purl.org/dc/elements/1.1/"
   xmlns:cc="http://creativecommons.org/ns#"
   xmlns:rdf="http://www.w3.org/1999/02/22-rdf-syntax-ns#"
   xmlns:svg="http://www.w3.org/2000/svg"
   xmlns="http://www.w3.org/2000/svg"
   xmlns:sodipodi="http://sodipodi.sourceforge.net/DTD/sodipodi-0.dtd"
   xmlns:inkscape="http://www.inkscape.org/namespaces/inkscape"
   inkscape:version="1.0 (4035a4f, 2020-05-01)"
   height="86"
   width="274.70001"
   sodipodi:docname="Pepsi_New.svg"
   xml:space="preserve"
   enable-background="new 0 0 284.4 86"
   viewBox="0 0 274.70002 86"
   y="0px"
   x="0px"
   id="Layer_1"
   version="1.1"><metadata
   id="metadata59"><rdf:RDF><cc:Work
       rdf:about=""><dc:format>image/svg+xml</dc:format><dc:type
         rdf:resource="http://purl.org/dc/dcmitype/StillImage" /><dc:title></dc:title></cc:Work></rdf:RDF></metadata><defs
   id="defs57" /><sodipodi:namedview
   inkscape:current-layer="g30"
   inkscape:window-maximized="0"
   inkscape:window-y="0"
   inkscape:window-x="0"
   inkscape:cy="43"
   inkscape:cx="142.2"
   inkscape:zoom="2.7722365"
   inkscape:pagecheckerboard="true"
   showgrid="false"
   id="namedview55"
   inkscape:window-height="900"
   inkscape:window-width="1440"
   inkscape:pageshadow="2"
   inkscape:pageopacity="0"
   guidetolerance="10"
   gridtolerance="10"
   objecttolerance="10"
   borderopacity="1"
   bordercolor="#666666"
   pagecolor="#ffffff" />
<g
   id="g34">
	<g
   id="g32">
		<g
   id="g30">
			<g
   id="g24">
				<path
   id="path10"
   d="m 182,42.4 v 0 c 0,-0.4 -0.1,-1 -0.2,-1.7 -0.1,-1.1 -0.4,-2.3 -0.7,-3.4 -2.6,-8.2 -9.6,-13.5 -17.8,-13.5 -0.8,0 -1.7,0.1 -2.5,0.2 -10.5,1.4 -17.7,10.9 -16.3,21.7 1.3,9.8 9.1,16.5 18.7,16.5 0.8,0 1.7,-0.1 2.5,-0.2 5.1,-0.6 9.6,-2.8 13,-7 0.2,-0.2 0.3,-0.5 0.2,-0.8 0,-0.2 -0.2,-0.5 -0.4,-0.7 -0.6,-0.4 -2.6,-1.4 -3.7,-1.9 -0.3,-0.2 -0.6,-0.3 -0.7,-0.4 -0.3,-0.2 -0.6,-0.2 -0.8,-0.2 -0.3,0 -0.5,0.1 -0.8,0.4 -2.2,2.5 -4.9,3.8 -7.7,4.2 -0.6,0.1 -1.1,0.1 -1.6,0.1 -5.1,0 -10.3,-3.4 -11.8,-8.1 v -0.1 l 0.1,-0.1 c 0.3,-0.1 2.7,-1.2 6.2,-1.2 0.4,0 0.9,0 1.3,0.1 1,0.1 2,0.2 3.1,0.3 2,0.3 4,0.5 6.5,0.5 1.5,0 2.9,-0.1 4.4,-0.3 5.8,-1.1 8.2,-2.8 8.2,-2.8 0.9,-0.4 0.8,-0.8 0.8,-1.6 M 175.4,40 c -1,0.3 -2.3,0.6 -3.9,0.8 -0.8,0.1 -1.6,0.2 -2.7,0.2 -1.7,0 -3.6,-0.1 -5.3,-0.3 h -0.1 c -1.7,-0.1 -3.2,-0.2 -4.7,-0.2 -1.1,0 -2.1,0.1 -3,0.2 -2.8,0.3 -5,1.2 -5,1.2 v -0.2 c 0.5,-5.6 5.3,-10.5 11,-11.2 0.5,-0.1 1.1,-0.1 1.6,-0.1 5.4,0 10.6,4.1 12.2,9.5 V 40 Z"
   fill="#005992" />
				<g
   id="g16">
					<path
   id="path12"
   d="m 273.6,26 c 0,-0.5 -0.4,-0.9 -0.9,-0.9 h -4.8 c -0.5,0 -0.9,0.4 -0.9,0.9 v 34.4 c 0,0.5 0.4,0.9 0.9,0.9 h 4.8 c 0.5,0 0.9,-0.4 0.9,-0.9 z"
   fill="#005992" />
					<path
   id="path14"
   d="m 270.3,12.8 c -2.4,0 -4.4,2 -4.4,4.4 0,2.4 2,4.4 4.4,4.4 2.4,0 4.4,-2 4.4,-4.4 -0.1,-2.4 -2,-4.4 -4.4,-4.4"
   fill="#005992" />
				</g>
				<path
   id="path18"
   d="m 206,62.2 c 0.3,0 0.6,0 0.9,0 5,0 9.6,-1.9 13,-5.4 3.5,-3.5 5.4,-8.4 5.4,-13.6 0,-10.9 -8.4,-19.4 -19.1,-19.4 -8.7,0 -16,5.7 -18.3,14.2 -0.4,1.4 -0.8,5.1 -0.8,8.8 v 27 c 0,0.5 0.4,0.9 0.9,0.9 h 4.8 c 0.5,0 0.9,-0.4 0.9,-0.9 v -17 L 194,57 c 2.4,2.4 6.8,5 12,5.2 m 0.2,-31.8 c 6.9,0 12.2,5.6 12.2,12.9 0,7.3 -5.1,12.7 -11.9,12.7 -3.4,0 -6.6,-1.2 -8.9,-3.4 -2.4,-2.3 -3.7,-5.5 -3.7,-9.1 0.1,-7.3 5.6,-13.1 12.3,-13.1"
   fill="#005992" />
				<path
   id="path20"
   d="m 119.7,62.2 c 0.3,0 0.6,0 0.9,0 5,0 9.6,-1.9 13,-5.4 3.5,-3.5 5.4,-8.4 5.4,-13.6 0,-10.9 -8.4,-19.4 -19.1,-19.4 -8.7,0 -16,5.7 -18.3,14.2 -0.4,1.4 -0.8,5.1 -0.8,8.8 v 27 c 0,0.5 0.4,0.9 0.9,0.9 h 4.8 c 0.5,0 0.9,-0.4 0.9,-0.9 v -17 l 0.2,0.2 c 2.5,2.4 6.9,5 12.1,5.2 m 0.2,-31.8 c 6.9,0 12.2,5.6 12.2,12.9 0,7.3 -5.1,12.7 -11.9,12.7 -3.4,0 -6.6,-1.2 -8.9,-3.4 -2.4,-2.3 -3.7,-5.5 -3.7,-9.1 0.1,-7.3 5.6,-13.1 12.3,-13.1"
   fill="#005992" />
				<path
   id="path22"
   d="m 230,56.2 c 4.2,3.8 8.7,6 14.7,6 h 0.2 c 10.2,-0.1 14.8,-5.7 14.8,-11.2 0,-7.6 -7.2,-9.7 -9.4,-10.2 -0.7,-0.1 -1.4,-0.3 -2.2,-0.4 -1.8,-0.3 -3.6,-0.7 -5.3,-1.2 -1.2,-0.3 -5,-1.6 -5,-4.5 0,-3.2 3.5,-4.9 6.8,-4.9 2.8,0 5.1,0.5 8,2.8 0.2,0.2 0.6,0.4 0.9,0.4 0.3,0 0.6,-0.1 0.9,-0.3 0.8,-0.6 2.3,-1.9 3.3,-2.9 0.2,-0.2 0.3,-0.5 0.3,-0.8 0,-0.4 -0.3,-0.8 -0.5,-0.9 -3.9,-3.1 -7.7,-4.4 -13.1,-4.4 v 0 c -7.7,0 -13.5,4.9 -13.5,11.5 0,5.2 4.3,8.9 12,10.4 l 4.8,0.9 c 3.2,0.6 5,2.3 4.9,4.6 -0.1,2.3 -2.9,4.7 -7.5,4.7 -3.8,0 -7.1,-1.5 -9.9,-4 v 0 c -0.2,-0.2 -0.4,-0.4 -0.8,-0.4 -0.2,0 -0.5,0.1 -0.7,0.3 -0.3,0.2 -3.5,2.8 -3.9,3.1 -0.2,0.2 -0.2,0.3 -0.2,0.5 0,0.4 0.2,0.7 0.4,0.9"
   fill="#005992" />
			</g>
			
		</g>
	</g>
</g>
<path
   id="path36"
   d="m 73.4,73.4 c -16.8,16.8 -44,16.8 -60.8,0 -16.8,-16.8 -16.8,-44 0,-60.8 16.8,-16.8 44,-16.8 60.8,0 16.8,16.8 16.8,44 0,60.8"
   fill="#ffffff" />
<path
   id="path38"
   d="m 77.3,20.8 c 0.8,2.7 1.3,5.5 1.3,8.4 0,9.5 -4.7,17.8 -11.8,23.1 -12.3,9.1 -30.3,9.1 -55.1,16.9 7.5,9 18.7,14.7 31.3,14.7 22.6,0 40.8,-18.3 40.8,-40.8 0,-8.3 -2.4,-15.9 -6.5,-22.3"
   fill="#005992" />
<path
   id="path40"
   d="M 67.5,10.3 C 60.7,5.2 52.2,2.1 43,2.1 20.4,2.1 2.2,20.4 2.2,43 c 0,9.1 3,17.5 8,24.2 27.4,-8 49.1,-29.5 57.3,-56.9"
   fill="#ed1a38" />
<g
   id="g42">
</g>
<g
   id="g44">
</g>
<g
   id="g46">
</g>
<g
   id="g48">
</g>
<g
   id="g50">
</g>
<g
   id="g52">
</g>
</svg>
